<svg xmlns="http://www.w3.org/2000/svg" viewBox="0 0 1600 520" preserveAspectRatio="xMidYMid slice">
  <defs>
    <linearGradient id="heroBg" x1="0%" y1="0%" x2="100%" y2="100%">
      <stop offset="0%" stop-color="#0f766e"/>
      <stop offset="42%" stop-color="#0d9488"/>
      <stop offset="100%" stop-color="#6366f1"/>
    </linearGradient>
    <linearGradient id="pulse" x1="0%" y1="0%" x2="100%" y2="0%">
      <stop offset="0%" stop-color="rgba(255,255,255,0)"/>
      <stop offset="40%" stop-color="rgba(255,255,255,0.5)"/>
      <stop offset="100%" stop-color="rgba(255,255,255,0)"/>
    </linearGradient>
  </defs>
  <rect width="1600" height="520" fill="url(#heroBg)"/>
  <circle cx="1340" cy="100" r="200" fill="rgba(255,255,255,0.07)"/>
  <circle cx="180" cy="400" r="160" fill="rgba(99,102,241,0.18)"/>
  <path d="M80 290 L220 228 340 276 460 184 620 246 760 164 940 296 1120 200 1280 254 1480 180 1520 180 1520 340 80 340Z" fill="rgba(255,255,255,0.06)"/>
  <path d="M100 320 L260 278 410 296 570 238 740 296 910 258 1090 304 1290 240 1460 288" fill="none" stroke="rgba(255,255,255,0.35)" stroke-width="3" stroke-linecap="round" stroke-linejoin="round"/>
  <path d="M1220 120v80M1180 160h80" stroke="rgba(255,255,255,0.42)" stroke-width="5" stroke-linecap="round"/>
  <circle cx="1220" cy="160" r="52" fill="none" stroke="rgba(255,255,255,0.22)" stroke-width="2"/>
  <rect x="80" y="72" width="420" height="6" rx="3" fill="url(#pulse)" opacity="0.55"/>
</svg>
